<?xml version="1.0" encoding="UTF-8"?>
<svg id="katman_2" data-name="katman 2" xmlns="http://www.w3.org/2000/svg" viewBox="0 0 263 263">
  <defs>
    <style>
      .cls-1 {
        fill: #fbc34e;
      }

      .cls-2 {
        fill: #e5a533;
      }
    </style>
  </defs>
  <g id="katman_1" data-name="katman 1">
    <path class="cls-1" d="M131.5,0C58.88,0,0,58.88,0,131.5s58.88,131.5,131.5,131.5,131.5-58.87,131.5-131.5S204.13,0,131.5,0ZM127.94,238.92c-59.33-1.97-105.82-51.66-103.85-110.98,1.97-59.32,51.65-105.82,110.97-103.85,59.33,1.97,105.82,51.65,103.86,110.98-1.97,59.32-51.66,105.81-110.98,103.85Z"/>
    <path class="cls-2" d="M135.06,24.09c-59.32-1.97-109,44.53-110.97,103.85-1.97,59.32,44.52,109.01,103.85,110.98,59.32,1.96,109.01-44.53,110.98-103.85,1.96-59.33-44.53-109.01-103.86-110.98ZM179.24,132.07c-.86,8.05-4.47,15.25-9.9,21.15-.08.09-.17.17-.26.25l-.07.05-4.42,4.12c-.07.07-.14.14-.22.2-5.62,4.43-11.98,7.6-18.95,9.54v11.65c0,.77-.41,1.39-1.12,1.63l-9.34,2.84h-1.01c-.52-.37-1.04-.96-1.03-1.51.01-.88.64-1.34,1.39-1.57l4.47-1.35-4.78-1.72c-.86-.31-1.27-1.17-.98-1.98.29-.78,1.16-1.21,2.03-.89l7.3,2.53v-8.9c-4.65,1.01-9.29,1.31-14.08.86v10.07c.01.73-.39,1.33-1.05,1.6l-9.33,2.86h-1.02c-.58-.36-1.11-.9-1.1-1.52.02-.79.58-1.32,1.29-1.53l4.6-1.38-5.05-1.83c-.8-.29-1.02-1.38-.66-2.05.32-.6,1.09-.96,1.85-.74l7.41,2.57v-8.45c-4.43-.77-8.65-2.14-12.68-4.31-6.91-3.66-12.29-9.29-15.9-16.19-.06-.11-.11-.23-.15-.34l-.08.04-2.28-5.66v-.03c-.11-.13-.18-.28-.24-.45-1.1-3.33-1.86-6.66-2.39-10.2-2.1.05-4.05-.42-5.58-1.7-2.39-1.98-3-4.96-1.7-7.79,1.14-2.46,2.97-4.48,5.03-6.26-1.32-.57-2.52-1.15-3.54-2.01-1.88-1.59-2.05-4.22-.21-5.89,2.19-2,5.25-2.71,8.13-3.61,1.17-2.65,2.81-4.94,4.99-6.78-3.85-3.77-5.95-8.41-3.14-13.16,1.52-2.55,3.91-4.27,6.8-4.74h2.58c2.92.47,5.37,2.26,6.47,5.12,4.16-1.13,8.1.98,8.6,5.24,2.27-.4,4.27.58,5.35,2.51,1.95,3.46-.02,6.57-3.34,8.69,2.32,4.54,3.33,9.77,5.87,13.98,1.91,3.14,4.96,5.16,8.61,5.62.04,0,.09,0,.13.03h.02l5.86.15h.02c4.37-.41,8.19-2.52,10.89-5.98l4.63-5.93c1.23-1.57,2.77-2.97,4.69-3.63,3.6-1.23,7.52-.13,10.22,2.5,1.87,1.82,3.25,3.94,4.15,6.44,2.08,5.72,2.86,11.74,2.22,17.84Z"/>
  </g>
</svg>